<svg width="1024" height="1024" viewBox="0 0 1024 1024" fill="none" xmlns="http://www.w3.org/2000/svg">
<g clip-path="url(#clip0_64_4)">
<path d="M0 0C337.92 0 675.84 0 1024 0C1024 337.92 1024 675.84 1024 1024C686.08 1024 348.16 1024 0 1024C0 686.08 0 348.16 0 0Z" fill="#101010"/>
<path d="M0 512C87.78 512 175.56 512 266 512C266.25 610.688 266.25 610.688 266.298 641.811C266.331 651.044 266.331 651.044 266.37 660.276C266.387 664.378 266.392 668.48 266.392 672.582C266.391 677.826 266.409 683.069 266.441 688.312C266.45 690.23 266.451 692.147 266.446 694.064C266.397 713.129 270.289 728.851 283.879 742.949C288.751 747.486 293.919 750.371 300 753C300.749 753.328 301.499 753.656 302.271 753.994C313.27 758.193 325.041 758.853 336.662 760.041C337.891 760.169 339.119 760.297 340.385 760.429C374.699 763.967 409.096 766.111 443.562 767.438C444.362 767.469 445.161 767.5 445.985 767.532C528.503 770.739 600.018 768.909 663.656 710.718C673.001 701.981 681.797 692.751 690.495 683.375C693.052 680.636 695.637 677.927 698.234 675.225C709.027 663.966 719.26 652.382 729.053 640.243C731.665 637.046 734.357 633.922 737.074 630.813C767.269 593.481 757.372 563.507 758 512C845.78 512 933.56 512 1024 512C1024 680.96 1024 849.92 1024 1024C686.08 1024 348.16 1024 0 1024C0 855.04 0 686.08 0 512Z" fill="black"/>
<path d="M768 0C852.48 0 936.96 0 1024 0C1024 168.96 1024 337.92 1024 512C936.22 512 848.44 512 758 512C757.812 412.938 757.812 412.938 757.792 381.711C757.762 372.437 757.762 372.437 757.726 363.163C757.71 359.047 757.708 354.931 757.714 350.815C757.722 345.55 757.705 340.285 757.672 335.02C757.664 333.097 757.664 331.174 757.673 329.251C757.754 311.315 754.379 295.906 741.75 282.25C731.352 272.572 718.362 266.883 704.166 266.869C703.488 266.867 702.81 266.864 702.111 266.862C699.834 266.857 697.557 266.858 695.28 266.86C693.633 266.857 691.986 266.854 690.339 266.851C685.809 266.842 681.279 266.841 676.749 266.84C671.865 266.838 666.981 266.831 662.096 266.824C651.414 266.81 640.733 266.804 630.051 266.8C623.381 266.797 616.712 266.793 610.042 266.788C591.577 266.776 573.112 266.766 554.647 266.762C553.465 266.762 552.283 266.762 551.066 266.762C549.881 266.762 548.696 266.761 547.476 266.761C545.075 266.761 542.674 266.76 540.274 266.76C539.083 266.76 537.892 266.759 536.665 266.759C517.37 266.755 498.074 266.738 478.779 266.714C458.969 266.691 439.16 266.678 419.351 266.677C408.228 266.676 397.105 266.67 385.983 266.652C376.512 266.637 367.041 266.632 357.57 266.64C352.738 266.644 347.906 266.643 343.075 266.629C338.649 266.616 334.223 266.617 329.797 266.63C328.199 266.631 326.601 266.628 325.002 266.62C307.474 266.53 294.658 270.868 281.863 283.031C276.516 288.654 272.896 294.814 270 302C269.746 302.602 269.492 303.203 269.23 303.823C265.979 312.778 266.559 322.105 266.568 331.495C266.559 333.467 266.548 335.438 266.537 337.41C266.509 342.74 266.5 348.07 266.494 353.4C266.484 358.978 266.458 364.557 266.434 370.136C266.39 380.689 266.362 391.243 266.339 401.797C266.311 413.816 266.268 425.835 266.222 437.855C266.129 462.57 266.058 487.285 266 512C262.7 512 259.4 512 256 512C256 427.52 256 343.04 256 256C424.96 256 593.92 256 768 256C768 171.52 768 87.04 768 0Z" fill="#424242"/>
<path d="M256 768C424.96 768 593.92 768 768 768C768 852.48 768 936.96 768 1024C599.04 1024 430.08 1024 256 1024C256 939.52 256 855.04 256 768Z" fill="#313131"/>
<path d="M768 512C852.48 512 936.96 512 1024 512C1024 680.96 1024 849.92 1024 1024C939.52 1024 855.04 1024 768 1024C768 855.04 768 686.08 768 512Z" fill="#101010"/>
<path d="M256 768C340.48 768 424.96 768 512 768C512 852.48 512 936.96 512 1024C427.52 1024 343.04 1024 256 1024C256 939.52 256 855.04 256 768Z" fill="#212121"/>
<path d="M0 256C84.48 256 168.96 256 256 256C256 340.48 256 424.96 256 512C171.52 512 87.04 512 0 512C0 427.52 0 343.04 0 256Z" fill="#101010"/>
<path d="M0 0C84.48 0 168.96 0 256 0C256 84.48 256 168.96 256 256C171.52 256 87.04 256 0 256C0 171.52 0 87.04 0 0Z" fill="#313131"/>
<path d="M256 256C424.96 256 593.92 256 768 256C768 340.48 768 424.96 768 512C764.7 512 761.4 512 758 512C757.999 510.983 757.999 509.966 757.998 508.918C757.984 484.128 757.941 459.337 757.868 434.547C757.833 422.558 757.808 410.57 757.804 398.581C757.801 388.126 757.781 377.672 757.739 367.218C757.718 361.687 757.705 356.156 757.714 350.625C757.721 345.409 757.705 340.193 757.672 334.977C757.664 333.072 757.664 331.168 757.673 329.263C757.754 311.322 754.383 295.91 741.75 282.25C731.352 272.572 718.362 266.883 704.166 266.869C703.488 266.867 702.81 266.864 702.111 266.862C699.834 266.857 697.557 266.858 695.28 266.86C693.633 266.857 691.986 266.854 690.339 266.851C685.809 266.842 681.279 266.841 676.749 266.84C671.865 266.838 666.981 266.831 662.096 266.824C651.414 266.81 640.733 266.804 630.051 266.8C623.381 266.797 616.712 266.793 610.042 266.788C591.577 266.776 573.112 266.766 554.647 266.762C553.465 266.762 552.283 266.762 551.066 266.762C549.881 266.762 548.696 266.761 547.476 266.761C545.075 266.761 542.674 266.76 540.274 266.76C539.083 266.76 537.892 266.759 536.665 266.759C517.37 266.755 498.074 266.738 478.779 266.714C458.969 266.691 439.16 266.678 419.351 266.677C408.228 266.676 397.105 266.67 385.983 266.652C376.512 266.637 367.041 266.632 357.57 266.64C352.738 266.644 347.906 266.643 343.075 266.629C338.649 266.616 334.223 266.617 329.797 266.63C328.199 266.631 326.601 266.628 325.002 266.62C307.473 266.53 294.658 270.868 281.863 283.031C276.516 288.654 272.896 294.814 270 302C269.746 302.602 269.492 303.203 269.23 303.823C265.979 312.778 266.559 322.105 266.568 331.495C266.559 333.467 266.548 335.438 266.537 337.41C266.509 342.74 266.5 348.07 266.494 353.4C266.484 358.978 266.458 364.557 266.434 370.136C266.39 380.689 266.362 391.243 266.339 401.797C266.311 413.816 266.268 425.835 266.222 437.855C266.129 462.57 266.058 487.285 266 512C262.7 512 259.4 512 256 512C256 427.52 256 343.04 256 256Z" fill="#313131"/>
<path d="M567 567C616.17 567 665.34 567 716 567C712.061 571.595 708.165 575.98 703.894 580.233C703.018 581.111 703.018 581.111 702.124 582.008C700.185 583.951 698.242 585.89 696.3 587.83C694.901 589.23 693.503 590.63 692.105 592.03C688.322 595.817 684.537 599.601 680.751 603.384C676.788 607.343 672.829 611.305 668.869 615.267C662.225 621.912 655.58 628.555 648.933 635.197C641.239 642.886 633.548 650.578 625.859 658.273C619.259 664.878 612.657 671.481 606.053 678.082C602.108 682.026 598.163 685.97 594.22 689.916C590.52 693.619 586.817 697.32 583.112 701.019C581.749 702.381 580.387 703.743 579.026 705.107C577.176 706.959 575.324 708.808 573.471 710.656C572.652 711.478 572.652 711.478 571.818 712.316C568.114 716 568.114 716 567 716C567 666.83 567 617.66 567 567Z" fill="#010101"/>
<path d="M256 512C259.3 512 262.6 512 266 512C266.001 513.014 266.003 514.027 266.004 515.072C266.041 539.77 266.101 564.468 266.184 589.166C266.224 601.109 266.256 613.053 266.271 624.997C266.284 635.411 266.311 645.825 266.355 656.239C266.377 661.75 266.393 667.261 266.392 672.772C266.391 677.966 266.409 683.161 266.441 688.356C266.45 690.255 266.451 692.154 266.446 694.053C266.397 713.122 270.285 728.847 283.879 742.949C288.751 747.487 293.92 750.369 300 753C301.21 753.535 301.21 753.535 302.444 754.082C312.108 757.832 321.519 757.576 331.722 757.546C333.694 757.555 335.666 757.565 337.638 757.577C342.96 757.605 348.281 757.608 353.603 757.607C359.176 757.611 364.749 757.636 370.323 757.659C380.862 757.7 391.401 757.72 401.941 757.733C413.946 757.749 425.951 757.788 437.955 757.828C462.637 757.91 487.318 757.965 512 758C512 761.3 512 764.6 512 768C427.52 768 343.04 768 256 768C256 683.52 256 599.04 256 512Z" fill="#101010"/>
<path fill-rule="evenodd" clip-rule="evenodd" d="M276 697C276 726.823 300.177 751 330 751H604C682.322 669.561 684.001 668.752 768 583V310C768 280.177 743.823 256 714 256H330C300.177 256 276 280.177 276 310V697Z" fill="white"/>
<path fill-rule="evenodd" clip-rule="evenodd" d="M577 706L724 559H577V706Z" fill="black" stroke="black" stroke-width="3" stroke-linecap="round" stroke-linejoin="round"/>
<path fill-rule="evenodd" clip-rule="evenodd" d="M385 559H521V503H384L385 559Z" fill="black" stroke="black" stroke-width="3" stroke-linecap="round" stroke-linejoin="round"/>
<path fill-rule="evenodd" clip-rule="evenodd" d="M384 393V447H657V395L384 393Z" fill="black" stroke="black" stroke-width="3" stroke-linecap="round" stroke-linejoin="round"/>
</g>
<defs>
<clipPath id="clip0_64_4">
<rect width="1024" height="1024" fill="white"/>
</clipPath>
</defs>
</svg>